<mxfile host="app.diagrams.net" modified="2024-03-23T14:00:38.483Z" agent="Mozilla/5.0 (Windows NT 10.0; Win64; x64) AppleWebKit/537.36 (KHTML, like Gecko) Chrome/122.0.0.0 Safari/537.36" etag="f_ukaNlONO6z8CjZ_Ou8" version="24.0.9" type="device">
  <diagram name="Strona-1" id="tSN4RX6DxGMIHNImL2nL">
    <mxGraphModel dx="1434" dy="790" grid="1" gridSize="10" guides="1" tooltips="1" connect="1" arrows="1" fold="1" page="1" pageScale="1" pageWidth="827" pageHeight="1169" math="0" shadow="0">
      <root>
        <mxCell id="0" />
        <mxCell id="1" parent="0" />
        <mxCell id="871TA96Qy-RxpIdz_fvL-9" style="edgeStyle=orthogonalEdgeStyle;rounded=0;orthogonalLoop=1;jettySize=auto;html=1;exitX=1;exitY=0.5;exitDx=0;exitDy=0;startArrow=ERmandOne;startFill=0;endArrow=ERzeroToMany;endFill=0;" edge="1" parent="1" source="871TA96Qy-RxpIdz_fvL-1" target="871TA96Qy-RxpIdz_fvL-3">
          <mxGeometry relative="1" as="geometry" />
        </mxCell>
        <mxCell id="871TA96Qy-RxpIdz_fvL-11" value="zawiera" style="edgeLabel;html=1;align=center;verticalAlign=middle;resizable=0;points=[];" vertex="1" connectable="0" parent="871TA96Qy-RxpIdz_fvL-9">
          <mxGeometry x="-0.0615" y="-1" relative="1" as="geometry">
            <mxPoint y="-11" as="offset" />
          </mxGeometry>
        </mxCell>
        <mxCell id="871TA96Qy-RxpIdz_fvL-1" value="Zamówienie" style="rounded=1;arcSize=10;whiteSpace=wrap;html=1;align=center;" vertex="1" parent="1">
          <mxGeometry x="120" y="110" width="100" height="40" as="geometry" />
        </mxCell>
        <mxCell id="871TA96Qy-RxpIdz_fvL-17" style="edgeStyle=orthogonalEdgeStyle;rounded=0;orthogonalLoop=1;jettySize=auto;html=1;entryX=0.5;entryY=1;entryDx=0;entryDy=0;endArrow=block;endFill=0;" edge="1" parent="1" source="871TA96Qy-RxpIdz_fvL-2" target="871TA96Qy-RxpIdz_fvL-5">
          <mxGeometry relative="1" as="geometry">
            <Array as="points">
              <mxPoint x="490" y="320" />
              <mxPoint x="400" y="320" />
            </Array>
          </mxGeometry>
        </mxCell>
        <mxCell id="871TA96Qy-RxpIdz_fvL-2" value="Rożek" style="rounded=1;arcSize=10;whiteSpace=wrap;html=1;align=center;" vertex="1" parent="1">
          <mxGeometry x="440" y="350" width="100" height="40" as="geometry" />
        </mxCell>
        <mxCell id="871TA96Qy-RxpIdz_fvL-12" style="edgeStyle=orthogonalEdgeStyle;rounded=0;orthogonalLoop=1;jettySize=auto;html=1;endArrow=ERmandOne;endFill=0;startArrow=ERoneToMany;startFill=0;" edge="1" parent="1" source="871TA96Qy-RxpIdz_fvL-3" target="871TA96Qy-RxpIdz_fvL-5">
          <mxGeometry relative="1" as="geometry" />
        </mxCell>
        <mxCell id="871TA96Qy-RxpIdz_fvL-13" value="wskazuje" style="edgeLabel;html=1;align=center;verticalAlign=middle;resizable=0;points=[];" vertex="1" connectable="0" parent="871TA96Qy-RxpIdz_fvL-12">
          <mxGeometry x="-0.3143" y="2" relative="1" as="geometry">
            <mxPoint x="-2" y="16" as="offset" />
          </mxGeometry>
        </mxCell>
        <mxCell id="871TA96Qy-RxpIdz_fvL-3" value="Pozycja" style="rounded=1;arcSize=10;whiteSpace=wrap;html=1;align=center;" vertex="1" parent="1">
          <mxGeometry x="350" y="110" width="100" height="40" as="geometry" />
        </mxCell>
        <mxCell id="871TA96Qy-RxpIdz_fvL-18" style="edgeStyle=orthogonalEdgeStyle;rounded=0;orthogonalLoop=1;jettySize=auto;html=1;startArrow=ERoneToMany;startFill=0;endArrow=ERoneToMany;endFill=0;" edge="1" parent="1" source="871TA96Qy-RxpIdz_fvL-4" target="871TA96Qy-RxpIdz_fvL-6">
          <mxGeometry relative="1" as="geometry" />
        </mxCell>
        <mxCell id="871TA96Qy-RxpIdz_fvL-19" value="opisuje" style="edgeLabel;html=1;align=center;verticalAlign=middle;resizable=0;points=[];" vertex="1" connectable="0" parent="871TA96Qy-RxpIdz_fvL-18">
          <mxGeometry x="0.0667" y="4" relative="1" as="geometry">
            <mxPoint y="-6" as="offset" />
          </mxGeometry>
        </mxCell>
        <mxCell id="871TA96Qy-RxpIdz_fvL-4" value="Kolor" style="rounded=1;arcSize=10;whiteSpace=wrap;html=1;align=center;" vertex="1" parent="1">
          <mxGeometry x="40" y="350" width="100" height="40" as="geometry" />
        </mxCell>
        <mxCell id="871TA96Qy-RxpIdz_fvL-5" value="Kontener" style="rounded=1;arcSize=10;whiteSpace=wrap;html=1;align=center;" vertex="1" parent="1">
          <mxGeometry x="350" y="250" width="100" height="40" as="geometry" />
        </mxCell>
        <mxCell id="871TA96Qy-RxpIdz_fvL-16" style="edgeStyle=orthogonalEdgeStyle;rounded=0;orthogonalLoop=1;jettySize=auto;html=1;endArrow=block;endFill=0;" edge="1" parent="1" source="871TA96Qy-RxpIdz_fvL-6" target="871TA96Qy-RxpIdz_fvL-5">
          <mxGeometry relative="1" as="geometry">
            <Array as="points">
              <mxPoint x="310" y="320" />
              <mxPoint x="400" y="320" />
            </Array>
          </mxGeometry>
        </mxCell>
        <mxCell id="871TA96Qy-RxpIdz_fvL-6" value="Kubek" style="rounded=1;arcSize=10;whiteSpace=wrap;html=1;align=center;" vertex="1" parent="1">
          <mxGeometry x="260" y="350" width="100" height="40" as="geometry" />
        </mxCell>
      </root>
    </mxGraphModel>
  </diagram>
</mxfile>
